{"accessors":[{"name":"Body_TDA_Gumi_by_canza52.000-Mesh_positions","componentType":5126,"count":19110,"min":[-0.36903101205825806,-0.001218999968841672,-0.24045099318027496],"max":[0.31021299958229065,1.7122910022735596,0.2275409996509552],"type":"VEC3","bufferView":0,"byteOffset":0},{"name":"Body_TDA_Gumi_by_canza52.000-Mesh_normals","componentType":5126,"count":19110,"min":[-1,-1,-0.9998000264167786],"max":[1,1,0.9998999834060669],"type":"VEC3","bufferView":0,"byteOffset":229320},{"name":"Body_TDA_Gumi_by_canza52.000-Mesh_texcoords","componentType":5126,"count":19110,"min":[0.011843999847769737,0.020217999815940857],"max":[0.9940580129623413,0.9876260161399841],"type":"VEC2","bufferView":1,"byteOffset":0},{"name":"Body_TDA_Gumi_by_canza52.000-Mesh_0_indices","componentType":5123,"count":92679,"min":[0],"max":[19109],"type":"SCALAR","bufferView":2,"byteOffset":0}],"asset":{"generator":"obj2gltf","version":"2.0"},"buffers":[{"name":"vrc","byteLength":1042324,"uri":"data:application/octet-stream;base64,"}],"bufferViews":[{"name":"bufferView_0","buffer":0,"byteLength":458640,"byteOffset":0,"byteStride":12,"target":34962},{"name":"bufferView_1","buffer":0,"byteLength":152880,"byteOffset":458640,"byteStride":8,"target":34962},{"name":"bufferView_2","buffer":0,"byteLength":185360,"byteOffset":611520,"target":34963},{"buffer":0,"byteOffset":796880,"byteLength":245442}],"images":[{"name":"vrc","mimeType":"image/png","bufferView":3}],"materials":[{"name":"Material","pbrMetallicRoughness":{"baseColorTexture":{"index":0},"baseColorFactor":[1,1,1,1],"metallicFactor":0,"roughnessFactor":0.903921569},"emissiveFactor":[0,0,0],"alphaMode":"OPAQUE","doubleSided":false}],"meshes":[{"name":"Body_TDA_Gumi_by_canza52.000-Mesh","primitives":[{"attributes":{"POSITION":0,"NORMAL":1,"TEXCOORD_0":2},"indices":3,"material":0,"mode":4}]}],"nodes":[{"name":"Body_TDA_Gumi_by_canza52.000","mesh":0}],"samplers":[{"magFilter":9729,"minFilter":9986,"wrapS":10497,"wrapT":10497}],"scene":0,"scenes":[{"nodes":[0]}],"textures":[{"name":"vrc","sampler":0,"source":0}]}
