{
    "accessors" : [
        {
            "bufferView" : 0,
            "componentType" : 5123,
            "count" : 55113,
            "max" : [
                13054
            ],
            "min" : [
                0
            ],
            "type" : "SCALAR"
        },
        {
            "bufferView" : 1,
            "componentType" : 5126,
            "count" : 13055,
            "max" : [
                0.26501694321632385,
                1.6865495443344116,
                0.2892988920211792
            ],
            "min" : [
                -0.39752277731895447,
                -0.024590609595179558,
                -0.17060136795043945
            ],
            "type" : "VEC3"
        },
        {
            "bufferView" : 2,
            "componentType" : 5126,
            "count" : 13055,
            "max" : [
                0.99993896484375,
                0.99945068359375,
                0.999786376953125
            ],
            "min" : [
                -0.999908447265625,
                -0.9989928603172302,
                -0.999725341796875
            ],
            "type" : "VEC3"
        },
        {
            "bufferView" : 3,
            "componentType" : 5126,
            "count" : 13055,
            "max" : [
                1.0,
                0.9999479651451111,
                0.999945878982544,
                1.0
            ],
            "min" : [
                -0.9999845623970032,
                -0.9999131560325623,
                -0.9999217391014099,
                -1.0
            ],
            "type" : "VEC4"
        },
        {
            "bufferView" : 4,
            "componentType" : 5126,
            "count" : 13055,
            "max" : [
                0.9940579533576965,
                0.9876264818012714
            ],
            "min" : [
                0.01577209308743477,
                0.02021801471710205
            ],
            "type" : "VEC2"
        },
        {
            "bufferView" : 5,
            "componentType" : 5123,
            "count" : 13055,
            "max" : [
                0,
                0,
                0,
                0
            ],
            "min" : [
                0,
                0,
                0,
                0
            ],
            "type" : "VEC4"
        },
        {
            "bufferView" : 6,
            "componentType" : 5126,
            "count" : 13055,
            "max" : [
                0.0,
                0.0,
                0.0,
                0.0
            ],
            "min" : [
                0.0,
                0.0,
                0.0,
                0.0
            ],
            "type" : "VEC4"
        },
        {
            "bufferView" : 7,
            "componentType" : 5123,
            "count" : 13055,
            "max" : [
                0,
                0,
                0,
                0
            ],
            "min" : [
                0,
                0,
                0,
                0
            ],
            "type" : "VEC4"
        },
        {
            "bufferView" : 8,
            "componentType" : 5126,
            "count" : 13055,
            "max" : [
                0.0,
                0.0,
                0.0,
                0.0
            ],
            "min" : [
                0.0,
                0.0,
                0.0,
                0.0
            ],
            "type" : "VEC4"
        }
    ],
    "asset" : {
        "generator" : "Khronos Blender glTF 2.0 exporter",
        "version" : "2.0"
    },
    "bufferViews" : [
        {
            "buffer" : 0,
            "byteLength" : 110226,
            "byteOffset" : 0,
            "target" : 34963
        },
        {
            "buffer" : 0,
            "byteLength" : 156660,
            "byteOffset" : 110228,
            "target" : 34962
        },
        {
            "buffer" : 0,
            "byteLength" : 156660,
            "byteOffset" : 266888,
            "target" : 34962
        },
        {
            "buffer" : 0,
            "byteLength" : 208880,
            "byteOffset" : 423548,
            "target" : 34962
        },
        {
            "buffer" : 0,
            "byteLength" : 104440,
            "byteOffset" : 632428,
            "target" : 34962
        },
        {
            "buffer" : 0,
            "byteLength" : 104440,
            "byteOffset" : 736868,
            "target" : 34962
        },
        {
            "buffer" : 0,
            "byteLength" : 208880,
            "byteOffset" : 841308,
            "target" : 34962
        },
        {
            "buffer" : 0,
            "byteLength" : 104440,
            "byteOffset" : 1050188,
            "target" : 34962
        },
        {
            "buffer" : 0,
            "byteLength" : 208880,
            "byteOffset" : 1154628,
            "target" : 34962
        }
    ],
    "buffers" : [
        {
            "byteLength" : 1363508,
            "uri" : "jjbapose-l.bin"
        }
    ],
    "extensionsUsed" : [
        "KHR_materials_unlit"
    ],
    "images" : [
        {
            "name" : "vrc",
            "uri" : "vrc.png"
        }
    ],
    "materials" : [
        {
            "alphaMode" : "MASK",
            "extensions" : {
                "KHR_materials_unlit" : {}
            },
            "name" : "Material",
            "pbrMetallicRoughness" : {
                "baseColorFactor" : [
                    0.6400000190734865,
                    0.6400000190734865,
                    0.6400000190734865,
                    0.0
                ],
                "baseColorTexture" : {
                    "index" : 0
                },
                "metallicFactor" : 0.0,
                "roughnessFactor" : 0.9
            }
        }
    ],
    "meshes" : [
        {
            "name" : "TDA Gumi by canza52.000",
            "primitives" : [
                {
                    "attributes" : {
                        "JOINTS_0" : 5,
                        "JOINTS_1" : 7,
                        "NORMAL" : 2,
                        "POSITION" : 1,
                        "TANGENT" : 3,
                        "TEXCOORD_0" : 4,
                        "WEIGHTS_0" : 6,
                        "WEIGHTS_1" : 8
                    },
                    "indices" : 0,
                    "material" : 0
                }
            ]
        }
    ],
    "nodes" : [
        {
            "mesh" : 0,
            "name" : "Body",
            "translation" : [
                0.0,
                0.025741813704371452,
                -0.030086420476436615
            ]
        }
    ],
    "samplers" : [
        {}
    ],
    "scene" : 0,
    "scenes" : [
        {
            "name" : "Scene",
            "nodes" : [
                0
            ]
        }
    ],
    "textures" : [
        {
            "sampler" : 0,
            "source" : 0
        }
    ]
}
