{
    "accessors" : [
        {
            "bufferView" : 0,
            "componentType" : 5123,
            "count" : 12648,
            "max" : [
                5195
            ],
            "min" : [
                0
            ],
            "type" : "SCALAR"
        },
        {
            "bufferView" : 1,
            "componentType" : 5126,
            "count" : 5196,
            "max" : [
                51.499000549316406,
                31.26270294189453,
                55.78046798706055
            ],
            "min" : [
                -51.499000549316406,
                -17.048744201660156,
                -78.10279846191406
            ],
            "type" : "VEC3"
        },
        {
            "bufferView" : 2,
            "componentType" : 5126,
            "count" : 5196,
            "max" : [
                1.0,
                1.0,
                1.0
            ],
            "min" : [
                -1.0,
                -1.0,
                -1.0
            ],
            "type" : "VEC3"
        },
        {
            "bufferView" : 3,
            "componentType" : 5126,
            "count" : 5196,
            "max" : [
                0.9999085068702698,
                0.9999115033933776
            ],
            "min" : [
                9.15149284992367e-05,
                8.851289749145508e-05
            ],
            "type" : "VEC2"
        }
    ],
    "asset" : {
        "generator" : "Khronos Blender glTF 2.0 exporter",
        "version" : "2.0"
    },
    "bufferViews" : [
        {
            "buffer" : 0,
            "byteLength" : 25296,
            "byteOffset" : 0,
            "target" : 34963
        },
        {
            "buffer" : 0,
            "byteLength" : 62352,
            "byteOffset" : 25296,
            "target" : 34962
        },
        {
            "buffer" : 0,
            "byteLength" : 62352,
            "byteOffset" : 87648,
            "target" : 34962
        },
        {
            "buffer" : 0,
            "byteLength" : 41568,
            "byteOffset" : 150000,
            "target" : 34962
        }
    ],
    "buffers" : [
        {
            "byteLength" : 191568,
            "uri" : "lowbake.bin"
        }
    ],
    "extensionsUsed" : [
        "KHR_materials_unlit"
    ],
    "images" : [
        {
            "name" : "preview",
            "uri" : "preview.png"
        }
    ],
    "materials" : [
        {
            "extensions" : {
                "KHR_materials_unlit" : {}
            },
            "name" : "Material.022",
            "pbrMetallicRoughness" : {
                "baseColorFactor" : [
                    0.800000011920929,
                    0.800000011920929,
                    0.800000011920929,
                    1.0
                ],
                "baseColorTexture" : {
                    "index" : 0
                },
                "metallicFactor" : 0.0,
                "roughnessFactor" : 0.9
            }
        }
    ],
    "meshes" : [
        {
            "name" : "Cube.003",
            "primitives" : [
                {
                    "attributes" : {
                        "NORMAL" : 2,
                        "POSITION" : 1,
                        "TEXCOORD_0" : 3
                    },
                    "indices" : 0,
                    "material" : 0
                }
            ]
        }
    ],
    "nodes" : [
        {
            "name" : "Camera",
            "rotation" : [
                0.6469436287879944,
                0.1776995062828064,
                -0.14956417679786682,
                0.7263039946556091
            ],
            "scale" : [
                0.9999997019767761,
                0.9999983310699463,
                0.9999983310699463
            ],
            "translation" : [
                0.9690402746200562,
                1.037599802017212,
                3.746124267578125
            ]
        },
        {
            "mesh" : 0,
            "name" : "Railing",
            "scale" : [
                0.031156565994024277,
                0.031156565994024277,
                0.031156565994024277
            ],
            "translation" : [
                0.0,
                0.5218541622161865,
                2.017007350921631
            ]
        },
        {
            "name" : "Spotlight.001",
            "rotation" : [
                0.5149737596511841,
                0.0,
                -0.0,
                0.8572059273719788
            ],
            "translation" : [
                0.0,
                1.3247888088226318,
                2.113436698913574
            ]
        },
        {
            "children" : [
                19,
                20
            ],
            "name" : "Stage Lamp Light Center",
            "translation" : [
                0.0,
                1.2822380065917969,
                0.6124351024627686
            ]
        },
        {
            "name" : "Stage Lamp Light Center.001",
            "translation" : [
                0.0,
                1.4593178033828735,
                1.5475267171859741
            ]
        },
        {
            "name" : "Stage Lamp Light Center.002",
            "translation" : [
                0.6786279678344727,
                1.4593178033828735,
                1.4480347633361816
            ]
        },
        {
            "name" : "Stage Lamp Light Center.003",
            "translation" : [
                1.2682948112487793,
                1.4593178033828735,
                1.1458063125610352
            ]
        },
        {
            "name" : "Stage Lamp Light Center.004",
            "translation" : [
                -0.6786280274391174,
                1.4593178033828735,
                1.4480347633361816
            ]
        },
        {
            "name" : "Stage Lamp Light Center.005",
            "translation" : [
                -1.2682900428771973,
                1.4593178033828735,
                1.1458063125610352
            ]
        },
        {
            "name" : "Stage Lamp Light Center.006",
            "translation" : [
                -1.2682900428771973,
                1.4593178033828735,
                2.0736513137817383
            ]
        },
        {
            "name" : "Stage Lamp Light Center.007",
            "translation" : [
                -0.6786280274391174,
                1.4593178033828735,
                2.3758797645568848
            ]
        },
        {
            "name" : "Stage Lamp Light Center.008",
            "translation" : [
                1.2682948112487793,
                1.4593178033828735,
                2.0736513137817383
            ]
        },
        {
            "name" : "Stage Lamp Light Center.009",
            "translation" : [
                0.6786279678344727,
                1.4593178033828735,
                2.3758797645568848
            ]
        },
        {
            "name" : "Stage Lamp Light Center.010",
            "translation" : [
                0.0,
                1.4593178033828735,
                2.475371837615967
            ]
        },
        {
            "name" : "Stage Lamp Light Center.011",
            "translation" : [
                0.0,
                1.4593178033828735,
                3.182936906814575
            ]
        },
        {
            "name" : "Stage Lamp Light Center.012",
            "translation" : [
                0.6786279678344727,
                1.4593178033828735,
                3.083444833755493
            ]
        },
        {
            "name" : "Stage Lamp Light Center.013",
            "translation" : [
                1.2682948112487793,
                1.4593178033828735,
                2.7812163829803467
            ]
        },
        {
            "name" : "Stage Lamp Light Center.014",
            "translation" : [
                -0.6786280274391174,
                1.4593178033828735,
                3.083444833755493
            ]
        },
        {
            "name" : "Stage Lamp Light Center.015",
            "translation" : [
                -1.2682900428771973,
                1.4593178033828735,
                2.7812163829803467
            ]
        },
        {
            "name" : "Stage Lamp Light L",
            "translation" : [
                -0.5,
                0.0,
                -0.46463894844055176
            ]
        },
        {
            "name" : "Stage Lamp Light R",
            "translation" : [
                0.5,
                0.0,
                -0.46463894844055176
            ]
        },
        {
            "children" : [
                25
            ],
            "name" : "Table Light Source Bottom",
            "scale" : [
                0.7092605829238892,
                0.7092605829238892,
                0.7092605829238892
            ],
            "translation" : [
                -0.3581274151802063,
                0.6552491784095764,
                2.4329612255096436
            ]
        },
        {
            "children" : [
                26
            ],
            "name" : "Table Light Source Bottom.001",
            "scale" : [
                0.7092605829238892,
                0.7092605829238892,
                0.7092605829238892
            ],
            "translation" : [
                0.35750624537467957,
                0.6552491784095764,
                2.4329612255096436
            ]
        },
        {
            "children" : [
                27
            ],
            "name" : "Table Light Source Bottom.002",
            "scale" : [
                0.7092605829238892,
                0.7092605829238892,
                0.7092605829238892
            ],
            "translation" : [
                1.009049654006958,
                0.6552491784095764,
                2.2529122829437256
            ]
        },
        {
            "children" : [
                28
            ],
            "name" : "Table Light Source Bottom.003",
            "scale" : [
                0.7092605829238892,
                0.7092605829238892,
                0.7092605829238892
            ],
            "translation" : [
                -1.0086421966552734,
                0.6552491784095764,
                2.2528939247131348
            ]
        },
        {
            "name" : "Table Light Source Top",
            "rotation" : [
                -2.642202012737016e-09,
                0.0,
                -1.0,
                -4.371138473402425e-08
            ],
            "scale" : [
                1.0,
                1.0,
                0.9999998211860657
            ],
            "translation" : [
                0.0,
                0.07459038496017456,
                -0.0
            ]
        },
        {
            "name" : "Table Light Source Top.001",
            "rotation" : [
                2.642202012737016e-09,
                0.0,
                -1.0,
                -4.371138473402425e-08
            ],
            "scale" : [
                1.0,
                1.0,
                0.9999998211860657
            ],
            "translation" : [
                0.0,
                0.07459038496017456,
                -0.0
            ]
        },
        {
            "name" : "Table Light Source Top.002",
            "rotation" : [
                3.3571005531030096e-08,
                -5.2844000286711434e-09,
                -1.0,
                -3.394741199258533e-08
            ],
            "scale" : [
                1.0000001192092896,
                1.0,
                0.9999998807907104
            ],
            "translation" : [
                1.1920928955078125e-07,
                0.07459044456481934,
                -0.0
            ]
        },
        {
            "name" : "Table Light Source Top.003",
            "rotation" : [
                1.0568805386412805e-08,
                -5.2844026932064025e-09,
                -1.0,
                -2.8810223540176594e-08
            ],
            "translation" : [
                0.0,
                0.07459038496017456,
                -0.0
            ]
        }
    ],
    "samplers" : [
        {}
    ],
    "scene" : 0,
    "scenes" : [
        {
            "name" : "Scene",
            "nodes" : [
                24,
                23,
                22,
                21,
                18,
                17,
                16,
                15,
                14,
                13,
                12,
                11,
                10,
                9,
                8,
                7,
                6,
                5,
                4,
                1,
                0,
                3,
                2
            ]
        }
    ],
    "textures" : [
        {
            "sampler" : 0,
            "source" : 0
        }
    ]
}
