{
    "accessors" : [
        {
            "bufferView" : 0,
            "componentType" : 5121,
            "count" : 216,
            "max" : [
                117
            ],
            "min" : [
                0
            ],
            "type" : "SCALAR"
        },
        {
            "bufferView" : 1,
            "componentType" : 5126,
            "count" : 118,
            "max" : [
                1.000000238418579,
                -0.06839749217033386,
                1.0
            ],
            "min" : [
                -1.0,
                -0.25286346673965454,
                -0.42392539978027344
            ],
            "type" : "VEC3"
        },
        {
            "bufferView" : 2,
            "componentType" : 5126,
            "count" : 118,
            "max" : [
                1.0,
                1.0,
                0.9951847195625305
            ],
            "min" : [
                -1.0,
                -1.0,
                -0.9999999403953552
            ],
            "type" : "VEC3"
        },
        {
            "bufferView" : 3,
            "componentType" : 5121,
            "count" : 156,
            "max" : [
                103
            ],
            "min" : [
                0
            ],
            "type" : "SCALAR"
        },
        {
            "bufferView" : 4,
            "componentType" : 5126,
            "count" : 104,
            "max" : [
                1.0,
                0.08609732985496521,
                1.0
            ],
            "min" : [
                -1.0,
                0.0,
                0.7777777910232544
            ],
            "type" : "VEC3"
        },
        {
            "bufferView" : 5,
            "componentType" : 5126,
            "count" : 104,
            "max" : [
                0.7457208037376404,
                0.6662591695785522,
                -0.0
            ],
            "min" : [
                -0.7457208037376404,
                0.6662586331367493,
                -0.0
            ],
            "type" : "VEC3"
        },
        {
            "bufferView" : 6,
            "componentType" : 5121,
            "count" : 96,
            "max" : [
                63
            ],
            "min" : [
                0
            ],
            "type" : "SCALAR"
        },
        {
            "bufferView" : 7,
            "componentType" : 5126,
            "count" : 64,
            "max" : [
                1.5127620697021484,
                1.073632836341858,
                -0.2722756564617157
            ],
            "min" : [
                -1.5127620697021484,
                0.14559930562973022,
                -0.4145451784133911
            ],
            "type" : "VEC3"
        },
        {
            "bufferView" : 8,
            "componentType" : 5126,
            "count" : 64,
            "max" : [
                0.7706423997879028,
                -8.153962482992938e-08,
                0.6372685432434082
            ],
            "min" : [
                -0.7706423997879028,
                -8.153969588420296e-08,
                0.6372678279876709
            ],
            "type" : "VEC3"
        }
    ],
    "asset" : {
        "generator" : "Khronos Blender glTF 2.0 exporter",
        "version" : "2.0"
    },
    "bufferViews" : [
        {
            "buffer" : 0,
            "byteLength" : 216,
            "byteOffset" : 0,
            "target" : 34963
        },
        {
            "buffer" : 0,
            "byteLength" : 1416,
            "byteOffset" : 216,
            "target" : 34962
        },
        {
            "buffer" : 0,
            "byteLength" : 1416,
            "byteOffset" : 1632,
            "target" : 34962
        },
        {
            "buffer" : 0,
            "byteLength" : 156,
            "byteOffset" : 3048,
            "target" : 34963
        },
        {
            "buffer" : 0,
            "byteLength" : 1248,
            "byteOffset" : 3204,
            "target" : 34962
        },
        {
            "buffer" : 0,
            "byteLength" : 1248,
            "byteOffset" : 4452,
            "target" : 34962
        },
        {
            "buffer" : 0,
            "byteLength" : 96,
            "byteOffset" : 5700,
            "target" : 34963
        },
        {
            "buffer" : 0,
            "byteLength" : 768,
            "byteOffset" : 5796,
            "target" : 34962
        },
        {
            "buffer" : 0,
            "byteLength" : 768,
            "byteOffset" : 6564,
            "target" : 34962
        }
    ],
    "buffers" : [
        {
            "byteLength" : 7332,
            "uri" : "omnstage.bin"
        }
    ],
    "meshes" : [
        {
            "name" : "Cylinder",
            "primitives" : [
                {
                    "attributes" : {
                        "NORMAL" : 2,
                        "POSITION" : 1
                    },
                    "indices" : 0
                }
            ]
        },
        {
            "name" : "Grid.002",
            "primitives" : [
                {
                    "attributes" : {
                        "NORMAL" : 5,
                        "POSITION" : 4
                    },
                    "indices" : 3
                }
            ]
        },
        {
            "name" : "Grid",
            "primitives" : [
                {
                    "attributes" : {
                        "NORMAL" : 8,
                        "POSITION" : 7
                    },
                    "indices" : 6
                }
            ]
        }
    ],
    "nodes" : [
        {
            "mesh" : 0,
            "name" : "Cylinder",
            "translation" : [
                -0.00019677780801430345,
                0.25286218523979187,
                0.012442030943930149
            ]
        },
        {
            "mesh" : 2,
            "name" : "Grid",
            "translation" : [
                0.0,
                0.051892995834350586,
                0.012442030943930149
            ]
        },
        {
            "mesh" : 1,
            "name" : "Grid.001",
            "rotation" : [
                0.7071068286895752,
                0.0,
                -0.0,
                0.7071068286895752
            ],
            "scale" : [
                1.5196515321731567,
                1.5196515321731567,
                1.5196515321731567
            ],
            "translation" : [
                0.0,
                2.4888226985931396,
                -0.31613150238990784
            ]
        }
    ],
    "scene" : 0,
    "scenes" : [
        {
            "name" : "Scene",
            "nodes" : [
                2,
                1,
                0
            ]
        }
    ]
}
